<?xml version="1.0" encoding="UTF-8" standalone="no"?>
<!DOCTYPE svg PUBLIC "-//W3C//DTD SVG 1.1//EN"
 "http://www.w3.org/Graphics/SVG/1.1/DTD/svg11.dtd">
<!-- Generated by graphviz version 2.40.1 (20161225.0304)
 -->
<!-- Title: dependencies Pages: 1 -->
<svg width="1160pt" height="284pt"
 viewBox="0.00 0.00 1160.00 284.00" xmlns="http://www.w3.org/2000/svg" xmlns:xlink="http://www.w3.org/1999/xlink">
<g id="graph0" class="graph" transform="scale(1 1) rotate(0) translate(4 280)">
<title>dependencies</title>
<polygon fill="#ffffff" stroke="transparent" points="-4,4 -4,-280 1156,-280 1156,4 -4,4"/>
<text text-anchor="start" x="555.0091" y="-42.4" font-family="sans-serif" font-weight="bold" font-size="14.00" fill="#000000">Legend</text>
<polygon fill="#ffffb3" stroke="transparent" points="342,-10 342,-30 362,-30 362,-10 342,-10"/>
<text text-anchor="start" x="365.629" y="-15.4" font-family="sans-serif" font-size="14.00" fill="#000000"> &#160;Declarations</text>
<polygon fill="#8dd3c7" stroke="transparent" points="455,-10 455,-30 475,-30 475,-10 455,-10"/>
<text text-anchor="start" x="478.7251" y="-15.4" font-family="sans-serif" font-size="14.00" fill="#000000"> &#160;Module</text>
<polygon fill="#80b1d3" stroke="transparent" points="541,-10 541,-30 561,-30 561,-10 541,-10"/>
<text text-anchor="start" x="564.7812" y="-15.4" font-family="sans-serif" font-size="14.00" fill="#000000"> &#160;Bootstrap</text>
<polygon fill="#fdb462" stroke="transparent" points="638,-10 638,-30 658,-30 658,-10 638,-10"/>
<text text-anchor="start" x="661.6732" y="-15.4" font-family="sans-serif" font-size="14.00" fill="#000000"> &#160;Providers</text>
<polygon fill="#fb8072" stroke="transparent" points="734,-10 734,-30 754,-30 754,-10 734,-10"/>
<text text-anchor="start" x="757.7258" y="-15.4" font-family="sans-serif" font-size="14.00" fill="#000000"> &#160;Exports</text>
<g id="clust1" class="cluster">
<title>cluster_AppModule</title>
<polygon fill="none" stroke="#000000" stroke-dasharray="1,5" points="8,-70 8,-268 1144,-268 1144,-70 8,-70"/>
</g>
<g id="clust2" class="cluster">
<title>cluster_AppModule_declarations</title>
<polygon fill="none" stroke="#000000" points="552,-78 552,-130 1136,-130 1136,-78 552,-78"/>
</g>
<g id="clust7" class="cluster">
<title>cluster_AppModule_imports</title>
<polygon fill="none" stroke="#000000" points="178,-78 178,-130 544,-130 544,-78 178,-78"/>
</g>
<g id="clust9" class="cluster">
<title>cluster_AppModule_bootstrap</title>
<polygon fill="none" stroke="#000000" points="496,-208 496,-260 620,-260 620,-208 496,-208"/>
</g>
<g id="clust10" class="cluster">
<title>cluster_AppModule_providers</title>
<polygon fill="none" stroke="#000000" points="16,-78 16,-130 170,-130 170,-78 16,-78"/>
</g>
<!-- AppComponent -->
<g id="node1" class="node">
<title>AppComponent</title>
<polygon fill="#ffffb3" stroke="#000000" points="1127.9399,-122 1022.0601,-122 1022.0601,-86 1127.9399,-86 1127.9399,-122"/>
<text text-anchor="middle" x="1075" y="-99.8" font-family="Times,serif" font-size="14.00" fill="#000000">AppComponent</text>
</g>
<!-- AppModule -->
<g id="node5" class="node">
<title>AppModule</title>
<polygon fill="#8dd3c7" stroke="#000000" points="599.6571,-187 596.6571,-191 575.6571,-191 572.6571,-187 516.3429,-187 516.3429,-151 599.6571,-151 599.6571,-187"/>
<text text-anchor="middle" x="558" y="-164.8" font-family="Times,serif" font-size="14.00" fill="#000000">AppModule</text>
</g>
<!-- AppComponent&#45;&gt;AppModule -->
<g id="edge1" class="edge">
<title>AppComponent&#45;&gt;AppModule</title>
<path fill="none" stroke="#000000" d="M1075,-122.2921C1075,-144.2057 1075,-178 1075,-178 1075,-178 609.8703,-178 609.8703,-178"/>
<polygon fill="#000000" stroke="#000000" points="609.8704,-174.5001 599.8703,-178 609.8703,-181.5001 609.8704,-174.5001"/>
</g>
<!-- LoginComponent -->
<g id="node2" class="node">
<title>LoginComponent</title>
<polygon fill="#ffffb3" stroke="#000000" points="1004.2758,-122 889.7242,-122 889.7242,-86 1004.2758,-86 1004.2758,-122"/>
<text text-anchor="middle" x="947" y="-99.8" font-family="Times,serif" font-size="14.00" fill="#000000">LoginComponent</text>
</g>
<!-- LoginComponent&#45;&gt;AppModule -->
<g id="edge2" class="edge">
<title>LoginComponent&#45;&gt;AppModule</title>
<path fill="none" stroke="#000000" d="M947,-122.1061C947,-141.3391 947,-169 947,-169 947,-169 609.9994,-169 609.9994,-169"/>
<polygon fill="#000000" stroke="#000000" points="609.9994,-165.5001 599.9994,-169 609.9994,-172.5001 609.9994,-165.5001"/>
</g>
<!-- PageNotFoundComponent -->
<g id="node3" class="node">
<title>PageNotFoundComponent</title>
<polygon fill="#ffffb3" stroke="#000000" points="871.8243,-122 706.1757,-122 706.1757,-86 871.8243,-86 871.8243,-122"/>
<text text-anchor="middle" x="789" y="-99.8" font-family="Times,serif" font-size="14.00" fill="#000000">PageNotFoundComponent</text>
</g>
<!-- PageNotFoundComponent&#45;&gt;AppModule -->
<g id="edge3" class="edge">
<title>PageNotFoundComponent&#45;&gt;AppModule</title>
<path fill="none" stroke="#000000" d="M789,-122.027C789,-138.3976 789,-160 789,-160 789,-160 609.8324,-160 609.8324,-160"/>
<polygon fill="#000000" stroke="#000000" points="609.8324,-156.5001 599.8324,-160 609.8323,-163.5001 609.8324,-156.5001"/>
</g>
<!-- RegisterComponent -->
<g id="node4" class="node">
<title>RegisterComponent</title>
<polygon fill="#ffffb3" stroke="#000000" points="687.9846,-122 560.0154,-122 560.0154,-86 687.9846,-86 687.9846,-122"/>
<text text-anchor="middle" x="624" y="-99.8" font-family="Times,serif" font-size="14.00" fill="#000000">RegisterComponent</text>
</g>
<!-- RegisterComponent&#45;&gt;AppModule -->
<g id="edge4" class="edge">
<title>RegisterComponent&#45;&gt;AppModule</title>
<path fill="none" stroke="#000000" d="M579.918,-122.1061C579.918,-122.1061 579.918,-140.991 579.918,-140.991"/>
<polygon fill="#000000" stroke="#000000" points="576.418,-140.9909 579.918,-150.991 583.418,-140.991 576.418,-140.9909"/>
</g>
<!-- AppComponent  -->
<g id="node9" class="node">
<title>AppComponent </title>
<polygon fill="#80b1d3" stroke="#000000" points="612.439,-252 503.561,-252 503.561,-216 612.439,-216 612.439,-252"/>
<text text-anchor="middle" x="558" y="-229.8" font-family="Times,serif" font-size="14.00" fill="#000000">AppComponent </text>
</g>
<!-- AppModule&#45;&gt;AppComponent  -->
<g id="edge8" class="edge">
<title>AppModule&#45;&gt;AppComponent </title>
<path fill="none" stroke="#000000" stroke-dasharray="1,5" d="M558,-187.1061C558,-187.1061 558,-205.991 558,-205.991"/>
<polygon fill="#000000" stroke="#000000" points="554.5001,-205.9909 558,-215.991 561.5001,-205.991 554.5001,-205.9909"/>
</g>
<!-- CoreModule -->
<g id="node6" class="node">
<title>CoreModule</title>
<polygon fill="#8dd3c7" stroke="#000000" points="536.2619,-122 533.2619,-126 512.2619,-126 509.2619,-122 449.7381,-122 449.7381,-86 536.2619,-86 536.2619,-122"/>
<text text-anchor="middle" x="493" y="-99.8" font-family="Times,serif" font-size="14.00" fill="#000000">CoreModule</text>
</g>
<!-- CoreModule&#45;&gt;AppModule -->
<g id="edge5" class="edge">
<title>CoreModule&#45;&gt;AppModule</title>
<path fill="none" stroke="#000000" d="M526.2763,-122.1061C526.2763,-122.1061 526.2763,-140.991 526.2763,-140.991"/>
<polygon fill="#000000" stroke="#000000" points="522.7764,-140.9909 526.2763,-150.991 529.7764,-140.991 522.7764,-140.9909"/>
</g>
<!-- SchoolModule -->
<g id="node7" class="node">
<title>SchoolModule</title>
<polygon fill="#8dd3c7" stroke="#000000" points="431.4386,-122 428.4386,-126 407.4386,-126 404.4386,-122 332.5614,-122 332.5614,-86 431.4386,-86 431.4386,-122"/>
<text text-anchor="middle" x="382" y="-99.8" font-family="Times,serif" font-size="14.00" fill="#000000">SchoolModule</text>
</g>
<!-- SchoolModule&#45;&gt;AppModule -->
<g id="edge6" class="edge">
<title>SchoolModule&#45;&gt;AppModule</title>
<path fill="none" stroke="#000000" d="M382,-122.027C382,-138.3976 382,-160 382,-160 382,-160 506.2905,-160 506.2905,-160"/>
<polygon fill="#000000" stroke="#000000" points="506.2905,-163.5001 516.2905,-160 506.2904,-156.5001 506.2905,-163.5001"/>
</g>
<!-- AppRoutingModule -->
<g id="node8" class="node">
<title>AppRoutingModule</title>
<polygon fill="#8dd3c7" stroke="#000000" points="314.2744,-122 311.2744,-126 290.2744,-126 287.2744,-122 185.7256,-122 185.7256,-86 314.2744,-86 314.2744,-122"/>
<text text-anchor="middle" x="250" y="-99.8" font-family="Times,serif" font-size="14.00" fill="#000000">AppRoutingModule</text>
</g>
<!-- AppRoutingModule&#45;&gt;AppModule -->
<g id="edge7" class="edge">
<title>AppRoutingModule&#45;&gt;AppModule</title>
<path fill="none" stroke="#000000" d="M250,-122.1061C250,-141.3391 250,-169 250,-169 250,-169 506.1412,-169 506.1412,-169"/>
<polygon fill="#000000" stroke="#000000" points="506.1412,-172.5001 516.1412,-169 506.1412,-165.5001 506.1412,-172.5001"/>
</g>
<!-- SessionService -->
<g id="node10" class="node">
<title>SessionService</title>
<ellipse fill="#fdb462" stroke="#000000" cx="93" cy="-104" rx="69.4974" ry="18"/>
<text text-anchor="middle" x="93" y="-99.8" font-family="Times,serif" font-size="14.00" fill="#000000">SessionService</text>
</g>
<!-- SessionService&#45;&gt;AppModule -->
<g id="edge9" class="edge">
<title>SessionService&#45;&gt;AppModule</title>
<path fill="none" stroke="#000000" d="M93,-122.2921C93,-144.2057 93,-178 93,-178 93,-178 506.3251,-178 506.3251,-178"/>
<polygon fill="#000000" stroke="#000000" points="506.3252,-181.5001 516.3251,-178 506.3251,-174.5001 506.3252,-181.5001"/>
</g>
</g>
</svg>
