<?xml version="1.0" encoding="UTF-8" standalone="no"?>
<!DOCTYPE svg PUBLIC "-//W3C//DTD SVG 1.1//EN"
 "http://www.w3.org/Graphics/SVG/1.1/DTD/svg11.dtd">
<!-- Generated by graphviz version 2.40.1 (20161225.0304)
 -->
<!-- Title: dependencies Pages: 1 -->
<svg width="506pt" height="211pt"
 viewBox="0.00 0.00 506.00 211.00" xmlns="http://www.w3.org/2000/svg" xmlns:xlink="http://www.w3.org/1999/xlink">
<g id="graph0" class="graph" transform="scale(1 1) rotate(0) translate(4 207)">
<title>dependencies</title>
<polygon fill="#ffffff" stroke="transparent" points="-4,4 -4,-207 502,-207 502,4 -4,4"/>
<text text-anchor="start" x="228.0091" y="-42.4" font-family="sans-serif" font-weight="bold" font-size="14.00" fill="#000000">Legend</text>
<polygon fill="#ffffb3" stroke="transparent" points="15,-10 15,-30 35,-30 35,-10 15,-10"/>
<text text-anchor="start" x="38.629" y="-15.4" font-family="sans-serif" font-size="14.00" fill="#000000"> &#160;Declarations</text>
<polygon fill="#8dd3c7" stroke="transparent" points="128,-10 128,-30 148,-30 148,-10 128,-10"/>
<text text-anchor="start" x="151.7251" y="-15.4" font-family="sans-serif" font-size="14.00" fill="#000000"> &#160;Module</text>
<polygon fill="#80b1d3" stroke="transparent" points="214,-10 214,-30 234,-30 234,-10 214,-10"/>
<text text-anchor="start" x="237.7812" y="-15.4" font-family="sans-serif" font-size="14.00" fill="#000000"> &#160;Bootstrap</text>
<polygon fill="#fdb462" stroke="transparent" points="311,-10 311,-30 331,-30 331,-10 311,-10"/>
<text text-anchor="start" x="334.6732" y="-15.4" font-family="sans-serif" font-size="14.00" fill="#000000"> &#160;Providers</text>
<polygon fill="#fb8072" stroke="transparent" points="407,-10 407,-30 427,-30 427,-10 407,-10"/>
<text text-anchor="start" x="430.7258" y="-15.4" font-family="sans-serif" font-size="14.00" fill="#000000"> &#160;Exports</text>
<g id="clust1" class="cluster">
<title>cluster_SchoolModule</title>
<polygon fill="none" stroke="#000000" stroke-dasharray="1,5" points="8,-70 8,-195 490,-195 490,-70 8,-70"/>
</g>
<g id="clust2" class="cluster">
<title>cluster_SchoolModule_declarations</title>
<polygon fill="none" stroke="#000000" points="178,-78 178,-130 482,-130 482,-78 178,-78"/>
</g>
<g id="clust8" class="cluster">
<title>cluster_SchoolModule_providers</title>
<polygon fill="none" stroke="#000000" points="16,-78 16,-130 170,-130 170,-78 16,-78"/>
</g>
<!-- StudentComponent -->
<g id="node1" class="node">
<title>StudentComponent</title>
<polygon fill="#ffffb3" stroke="#000000" points="474.1108,-122 349.8892,-122 349.8892,-86 474.1108,-86 474.1108,-122"/>
<text text-anchor="middle" x="412" y="-99.8" font-family="Times,serif" font-size="14.00" fill="#000000">StudentComponent</text>
</g>
<!-- SchoolModule -->
<g id="node3" class="node">
<title>SchoolModule</title>
<polygon fill="#8dd3c7" stroke="#000000" points="308.4386,-187 305.4386,-191 284.4386,-191 281.4386,-187 209.5614,-187 209.5614,-151 308.4386,-151 308.4386,-187"/>
<text text-anchor="middle" x="259" y="-164.8" font-family="Times,serif" font-size="14.00" fill="#000000">SchoolModule</text>
</g>
<!-- StudentComponent&#45;&gt;SchoolModule -->
<g id="edge1" class="edge">
<title>StudentComponent&#45;&gt;SchoolModule</title>
<path fill="none" stroke="#000000" d="M412,-122.1061C412,-141.3391 412,-169 412,-169 412,-169 318.2523,-169 318.2523,-169"/>
<polygon fill="#000000" stroke="#000000" points="318.2524,-165.5001 308.2523,-169 318.2523,-172.5001 318.2524,-165.5001"/>
</g>
<!-- StudentListComponent -->
<g id="node2" class="node">
<title>StudentListComponent</title>
<polygon fill="#ffffb3" stroke="#000000" points="331.8892,-122 186.1108,-122 186.1108,-86 331.8892,-86 331.8892,-122"/>
<text text-anchor="middle" x="259" y="-99.8" font-family="Times,serif" font-size="14.00" fill="#000000">StudentListComponent</text>
</g>
<!-- StudentListComponent&#45;&gt;SchoolModule -->
<g id="edge2" class="edge">
<title>StudentListComponent&#45;&gt;SchoolModule</title>
<path fill="none" stroke="#000000" d="M259,-122.1061C259,-122.1061 259,-140.991 259,-140.991"/>
<polygon fill="#000000" stroke="#000000" points="255.5001,-140.9909 259,-150.991 262.5001,-140.991 255.5001,-140.9909"/>
</g>
<!-- StudentService -->
<g id="node4" class="node">
<title>StudentService</title>
<ellipse fill="#fdb462" stroke="#000000" cx="93" cy="-104" rx="69.4993" ry="18"/>
<text text-anchor="middle" x="93" y="-99.8" font-family="Times,serif" font-size="14.00" fill="#000000">StudentService</text>
</g>
<!-- StudentService&#45;&gt;SchoolModule -->
<g id="edge3" class="edge">
<title>StudentService&#45;&gt;SchoolModule</title>
<path fill="none" stroke="#000000" d="M93,-122.1061C93,-141.3391 93,-169 93,-169 93,-169 199.644,-169 199.644,-169"/>
<polygon fill="#000000" stroke="#000000" points="199.644,-172.5001 209.644,-169 199.6439,-165.5001 199.644,-172.5001"/>
</g>
</g>
</svg>
