<?xml version="1.0" encoding="UTF-8" standalone="no"?>
<!DOCTYPE svg PUBLIC "-//W3C//DTD SVG 1.1//EN"
 "http://www.w3.org/Graphics/SVG/1.1/DTD/svg11.dtd">
<!-- Generated by graphviz version 2.40.1 (20161225.0304)
 -->
<!-- Title: dependencies Pages: 1 -->
<svg width="1160pt" height="360pt"
 viewBox="0.00 0.00 1160.00 360.00" xmlns="http://www.w3.org/2000/svg" xmlns:xlink="http://www.w3.org/1999/xlink">
<g id="graph0" class="graph" transform="scale(1 1) rotate(0) translate(4 356)">
<title>dependencies</title>
<polygon fill="#ffffff" stroke="transparent" points="-4,4 -4,-356 1156,-356 1156,4 -4,4"/>
<text text-anchor="start" x="555.0091" y="-42.4" font-family="sans-serif" font-weight="bold" font-size="14.00" fill="#000000">Legend</text>
<polygon fill="#ffffb3" stroke="transparent" points="342,-10 342,-30 362,-30 362,-10 342,-10"/>
<text text-anchor="start" x="365.629" y="-15.4" font-family="sans-serif" font-size="14.00" fill="#000000"> &#160;Declarations</text>
<polygon fill="#8dd3c7" stroke="transparent" points="455,-10 455,-30 475,-30 475,-10 455,-10"/>
<text text-anchor="start" x="478.7251" y="-15.4" font-family="sans-serif" font-size="14.00" fill="#000000"> &#160;Module</text>
<polygon fill="#80b1d3" stroke="transparent" points="541,-10 541,-30 561,-30 561,-10 541,-10"/>
<text text-anchor="start" x="564.7812" y="-15.4" font-family="sans-serif" font-size="14.00" fill="#000000"> &#160;Bootstrap</text>
<polygon fill="#fdb462" stroke="transparent" points="638,-10 638,-30 658,-30 658,-10 638,-10"/>
<text text-anchor="start" x="661.6732" y="-15.4" font-family="sans-serif" font-size="14.00" fill="#000000"> &#160;Providers</text>
<polygon fill="#fb8072" stroke="transparent" points="734,-10 734,-30 754,-30 754,-10 734,-10"/>
<text text-anchor="start" x="757.7258" y="-15.4" font-family="sans-serif" font-size="14.00" fill="#000000"> &#160;Exports</text>
<g id="clust1" class="cluster">
<title>cluster_AppModule</title>
<polygon fill="none" stroke="#000000" stroke-dasharray="1,5" points="8,-146 8,-344 1144,-344 1144,-146 8,-146"/>
</g>
<g id="clust2" class="cluster">
<title>cluster_AppModule_declarations</title>
<polygon fill="none" stroke="#000000" points="552,-154 552,-206 1136,-206 1136,-154 552,-154"/>
</g>
<g id="clust7" class="cluster">
<title>cluster_AppModule_imports</title>
<polygon fill="none" stroke="#000000" points="178,-154 178,-206 544,-206 544,-154 178,-154"/>
</g>
<g id="clust9" class="cluster">
<title>cluster_AppModule_bootstrap</title>
<polygon fill="none" stroke="#000000" points="496,-284 496,-336 620,-336 620,-284 496,-284"/>
</g>
<g id="clust10" class="cluster">
<title>cluster_AppModule_providers</title>
<polygon fill="none" stroke="#000000" points="16,-154 16,-206 170,-206 170,-154 16,-154"/>
</g>
<g id="clust23" class="cluster">
<title>cluster_SchoolModule</title>
<polygon fill="none" stroke="#000000" stroke-dasharray="1,5" points="131,-70 131,-138 613,-138 613,-70 131,-70"/>
</g>
<g id="clust24" class="cluster">
<title>cluster_SchoolModule_declarations</title>
<polygon fill="none" stroke="#000000" points="301,-78 301,-130 605,-130 605,-78 301,-78"/>
</g>
<g id="clust30" class="cluster">
<title>cluster_SchoolModule_providers</title>
<polygon fill="none" stroke="#000000" points="139,-78 139,-130 293,-130 293,-78 139,-78"/>
</g>
<!-- AppComponent -->
<g id="node1" class="node">
<title>AppComponent</title>
<polygon fill="#ffffb3" stroke="#000000" points="1127.9399,-198 1022.0601,-198 1022.0601,-162 1127.9399,-162 1127.9399,-198"/>
<text text-anchor="middle" x="1075" y="-175.8" font-family="Times,serif" font-size="14.00" fill="#000000">AppComponent</text>
</g>
<!-- AppModule -->
<g id="node5" class="node">
<title>AppModule</title>
<polygon fill="#8dd3c7" stroke="#000000" points="599.6571,-263 596.6571,-267 575.6571,-267 572.6571,-263 516.3429,-263 516.3429,-227 599.6571,-227 599.6571,-263"/>
<text text-anchor="middle" x="558" y="-240.8" font-family="Times,serif" font-size="14.00" fill="#000000">AppModule</text>
</g>
<!-- AppComponent&#45;&gt;AppModule -->
<g id="edge1" class="edge">
<title>AppComponent&#45;&gt;AppModule</title>
<path fill="none" stroke="#000000" d="M1075,-198.2921C1075,-220.2057 1075,-254 1075,-254 1075,-254 609.8703,-254 609.8703,-254"/>
<polygon fill="#000000" stroke="#000000" points="609.8704,-250.5001 599.8703,-254 609.8703,-257.5001 609.8704,-250.5001"/>
</g>
<!-- LoginComponent -->
<g id="node2" class="node">
<title>LoginComponent</title>
<polygon fill="#ffffb3" stroke="#000000" points="1004.2758,-198 889.7242,-198 889.7242,-162 1004.2758,-162 1004.2758,-198"/>
<text text-anchor="middle" x="947" y="-175.8" font-family="Times,serif" font-size="14.00" fill="#000000">LoginComponent</text>
</g>
<!-- LoginComponent&#45;&gt;AppModule -->
<g id="edge2" class="edge">
<title>LoginComponent&#45;&gt;AppModule</title>
<path fill="none" stroke="#000000" d="M947,-198.1061C947,-217.3391 947,-245 947,-245 947,-245 609.9994,-245 609.9994,-245"/>
<polygon fill="#000000" stroke="#000000" points="609.9994,-241.5001 599.9994,-245 609.9994,-248.5001 609.9994,-241.5001"/>
</g>
<!-- PageNotFoundComponent -->
<g id="node3" class="node">
<title>PageNotFoundComponent</title>
<polygon fill="#ffffb3" stroke="#000000" points="871.8243,-198 706.1757,-198 706.1757,-162 871.8243,-162 871.8243,-198"/>
<text text-anchor="middle" x="789" y="-175.8" font-family="Times,serif" font-size="14.00" fill="#000000">PageNotFoundComponent</text>
</g>
<!-- PageNotFoundComponent&#45;&gt;AppModule -->
<g id="edge3" class="edge">
<title>PageNotFoundComponent&#45;&gt;AppModule</title>
<path fill="none" stroke="#000000" d="M789,-198.027C789,-214.3976 789,-236 789,-236 789,-236 609.8324,-236 609.8324,-236"/>
<polygon fill="#000000" stroke="#000000" points="609.8324,-232.5001 599.8324,-236 609.8323,-239.5001 609.8324,-232.5001"/>
</g>
<!-- RegisterComponent -->
<g id="node4" class="node">
<title>RegisterComponent</title>
<polygon fill="#ffffb3" stroke="#000000" points="687.9846,-198 560.0154,-198 560.0154,-162 687.9846,-162 687.9846,-198"/>
<text text-anchor="middle" x="624" y="-175.8" font-family="Times,serif" font-size="14.00" fill="#000000">RegisterComponent</text>
</g>
<!-- RegisterComponent&#45;&gt;AppModule -->
<g id="edge4" class="edge">
<title>RegisterComponent&#45;&gt;AppModule</title>
<path fill="none" stroke="#000000" d="M579.918,-198.1061C579.918,-198.1061 579.918,-216.991 579.918,-216.991"/>
<polygon fill="#000000" stroke="#000000" points="576.418,-216.9909 579.918,-226.991 583.418,-216.991 576.418,-216.9909"/>
</g>
<!-- AppComponent  -->
<g id="node9" class="node">
<title>AppComponent </title>
<polygon fill="#80b1d3" stroke="#000000" points="612.439,-328 503.561,-328 503.561,-292 612.439,-292 612.439,-328"/>
<text text-anchor="middle" x="558" y="-305.8" font-family="Times,serif" font-size="14.00" fill="#000000">AppComponent </text>
</g>
<!-- AppModule&#45;&gt;AppComponent  -->
<g id="edge8" class="edge">
<title>AppModule&#45;&gt;AppComponent </title>
<path fill="none" stroke="#000000" stroke-dasharray="1,5" d="M558,-263.1061C558,-263.1061 558,-281.991 558,-281.991"/>
<polygon fill="#000000" stroke="#000000" points="554.5001,-281.9909 558,-291.991 561.5001,-281.991 554.5001,-281.9909"/>
</g>
<!-- CoreModule -->
<g id="node6" class="node">
<title>CoreModule</title>
<polygon fill="#8dd3c7" stroke="#000000" points="536.2619,-198 533.2619,-202 512.2619,-202 509.2619,-198 449.7381,-198 449.7381,-162 536.2619,-162 536.2619,-198"/>
<text text-anchor="middle" x="493" y="-175.8" font-family="Times,serif" font-size="14.00" fill="#000000">CoreModule</text>
</g>
<!-- CoreModule&#45;&gt;AppModule -->
<g id="edge5" class="edge">
<title>CoreModule&#45;&gt;AppModule</title>
<path fill="none" stroke="#000000" d="M526.2763,-198.1061C526.2763,-198.1061 526.2763,-216.991 526.2763,-216.991"/>
<polygon fill="#000000" stroke="#000000" points="522.7764,-216.9909 526.2763,-226.991 529.7764,-216.991 522.7764,-216.9909"/>
</g>
<!-- SchoolModule -->
<g id="node7" class="node">
<title>SchoolModule</title>
<polygon fill="#8dd3c7" stroke="#000000" points="431.4386,-198 428.4386,-202 407.4386,-202 404.4386,-198 332.5614,-198 332.5614,-162 431.4386,-162 431.4386,-198"/>
<text text-anchor="middle" x="382" y="-175.8" font-family="Times,serif" font-size="14.00" fill="#000000">SchoolModule</text>
</g>
<!-- SchoolModule&#45;&gt;AppModule -->
<g id="edge6" class="edge">
<title>SchoolModule&#45;&gt;AppModule</title>
<path fill="none" stroke="#000000" d="M382,-198.027C382,-214.3976 382,-236 382,-236 382,-236 506.2905,-236 506.2905,-236"/>
<polygon fill="#000000" stroke="#000000" points="506.2905,-239.5001 516.2905,-236 506.2904,-232.5001 506.2905,-239.5001"/>
</g>
<!-- AppRoutingModule -->
<g id="node8" class="node">
<title>AppRoutingModule</title>
<polygon fill="#8dd3c7" stroke="#000000" points="314.2744,-198 311.2744,-202 290.2744,-202 287.2744,-198 185.7256,-198 185.7256,-162 314.2744,-162 314.2744,-198"/>
<text text-anchor="middle" x="250" y="-175.8" font-family="Times,serif" font-size="14.00" fill="#000000">AppRoutingModule</text>
</g>
<!-- AppRoutingModule&#45;&gt;AppModule -->
<g id="edge7" class="edge">
<title>AppRoutingModule&#45;&gt;AppModule</title>
<path fill="none" stroke="#000000" d="M250,-198.1061C250,-217.3391 250,-245 250,-245 250,-245 506.1412,-245 506.1412,-245"/>
<polygon fill="#000000" stroke="#000000" points="506.1412,-248.5001 516.1412,-245 506.1412,-241.5001 506.1412,-248.5001"/>
</g>
<!-- SessionService -->
<g id="node10" class="node">
<title>SessionService</title>
<ellipse fill="#fdb462" stroke="#000000" cx="93" cy="-180" rx="69.4974" ry="18"/>
<text text-anchor="middle" x="93" y="-175.8" font-family="Times,serif" font-size="14.00" fill="#000000">SessionService</text>
</g>
<!-- SessionService&#45;&gt;AppModule -->
<g id="edge9" class="edge">
<title>SessionService&#45;&gt;AppModule</title>
<path fill="none" stroke="#000000" d="M93,-198.2921C93,-220.2057 93,-254 93,-254 93,-254 506.3251,-254 506.3251,-254"/>
<polygon fill="#000000" stroke="#000000" points="506.3252,-257.5001 516.3251,-254 506.3251,-250.5001 506.3252,-257.5001"/>
</g>
<!-- StudentComponent -->
<g id="node11" class="node">
<title>StudentComponent</title>
<polygon fill="#ffffb3" stroke="#000000" points="597.1108,-122 472.8892,-122 472.8892,-86 597.1108,-86 597.1108,-122"/>
<text text-anchor="middle" x="535" y="-99.8" font-family="Times,serif" font-size="14.00" fill="#000000">StudentComponent</text>
</g>
<!-- StudentComponent&#45;&gt;SchoolModule -->
<g id="edge10" class="edge">
<title>StudentComponent&#45;&gt;SchoolModule</title>
<path fill="none" stroke="#000000" d="M504.6627,-122.0439C504.6627,-134.5633 504.6627,-149 504.6627,-149 504.6627,-149 406.6094,-149 406.6094,-149 406.6094,-149 406.6094,-151.9672 406.6094,-151.9672"/>
<polygon fill="#000000" stroke="#000000" points="403.1095,-151.9671 406.6094,-161.9672 410.1095,-151.9672 403.1095,-151.9671"/>
</g>
<!-- StudentListComponent -->
<g id="node12" class="node">
<title>StudentListComponent</title>
<polygon fill="#ffffb3" stroke="#000000" points="454.8892,-122 309.1108,-122 309.1108,-86 454.8892,-86 454.8892,-122"/>
<text text-anchor="middle" x="382" y="-99.8" font-family="Times,serif" font-size="14.00" fill="#000000">StudentListComponent</text>
</g>
<!-- StudentListComponent&#45;&gt;SchoolModule -->
<g id="edge11" class="edge">
<title>StudentListComponent&#45;&gt;SchoolModule</title>
<path fill="none" stroke="#000000" d="M382,-122.0109C382,-122.0109 382,-151.855 382,-151.855"/>
<polygon fill="#000000" stroke="#000000" points="378.5001,-151.8549 382,-161.855 385.5001,-151.855 378.5001,-151.8549"/>
</g>
<!-- StudentService -->
<g id="node13" class="node">
<title>StudentService</title>
<ellipse fill="#fdb462" stroke="#000000" cx="216" cy="-104" rx="69.4993" ry="18"/>
<text text-anchor="middle" x="216" y="-99.8" font-family="Times,serif" font-size="14.00" fill="#000000">StudentService</text>
</g>
<!-- StudentService&#45;&gt;SchoolModule -->
<g id="edge12" class="edge">
<title>StudentService&#45;&gt;SchoolModule</title>
<path fill="none" stroke="#000000" d="M235.5563,-121.498C235.5563,-128.9688 235.5563,-136 235.5563,-136 235.5563,-136 357.3906,-136 357.3906,-136 357.3906,-136 357.3906,-151.8495 357.3906,-151.8495"/>
<polygon fill="#000000" stroke="#000000" points="353.8907,-151.8494 357.3906,-161.8495 360.8907,-151.8495 353.8907,-151.8494"/>
</g>
</g>
</svg>
